<svg xmlns="http://www.w3.org/2000/svg" viewBox="0 0 1040 260">
  <defs>
    <radialGradient id="gA" cx="35%" cy="30%" r="70%">
      <stop offset="0%" stop-color="#FCD34D"/>
      <stop offset="60%" stop-color="#F59E0B"/>
      <stop offset="100%" stop-color="#B45309"/>
    </radialGradient>
  </defs>
  
    <g transform="translate(70,105) rotate(-15)">
      <path d="M20 0 H70 a8 8 0 0 1 8 8 v36 a8 8 0 0 1 -2.3 5.7 L51 74 a8 8 0 0 1 -11.3 0 L12.3 46.3 A8 8 0 0 1 10 40 V8 a8 8 0 0 1 8 -8 Z" fill="#1E3A8A"/>
      <circle cx="30" cy="16" r="6" fill="#FFFFFF"/>
      <rect x="22" y="28" width="2" height="18" fill="#FFFFFF"/><rect x="26" y="28" width="4" height="18" fill="#FFFFFF"/>
      <rect x="32" y="28" width="2" height="18" fill="#FFFFFF"/><rect x="36" y="28" width="6" height="18" fill="#FFFFFF"/>
      <rect x="44" y="28" width="2" height="18" fill="#FFFFFF"/><rect x="48" y="28" width="4" height="18" fill="#FFFFFF"/>
      <path d="M28 55 L38 64 L58 46" stroke="#10B981" stroke-width="8" fill="none" stroke-linecap="round" stroke-linejoin="round"/>
    </g>
    
  <path d="M175,60 q-22 10 -24 30" fill="none" stroke="#1E3A8A" stroke-width="4" stroke-linecap="round"/><circle cx="151" cy="92" r="5" fill="#1E3A8A"/>
  <text x="180" y="150" style="font:800 118px Inter, system-ui, -apple-system, Segoe UI, Roboto, sans-serif; fill:#0F172A;">SnapSt</text>
  <!-- Coin as 'o' -->
  <g transform="translate(642,120)">
    <circle r="44" fill="url(#gA)"/>
    <circle r="44" fill="none" stroke="#B45309" stroke-width="6"/>
    <circle r="32" fill="none" stroke="#FFFFFF" stroke-opacity="0.35" stroke-width="6"/>
    <!-- embossed S: two strokes, light/highlight & dark/shadow -->
    <path d="M-12,-16 c8,-8 28,-6 28,4 c0,12 -32,10 -32,22 c0,10 20,12 28,4" fill="none" stroke="#FFFFFF" stroke-opacity="0.85" stroke-width="5" stroke-linecap="round"/>
    <path d="M-12,-14 c8,-8 28,-6 28,4 c0,12 -32,10 -32,22 c0,10 20,12 28,4" fill="none" stroke="#B45309" stroke-opacity="0.35" stroke-width="7" stroke-linecap="round"/>
  </g>
  <text x="690" y="150" style="font:800 118px Inter, system-ui, -apple-system, Segoe UI, Roboto, sans-serif; fill:#0F172A;">ck</text>
  <text x="184" y="200" style="font:600 24px system-ui, -apple-system, Segoe UI, Roboto, sans-serif; fill:#475569;">Snap it. Stock it. Sold.</text>
</svg>